<?xml version="1.0" encoding="UTF-8" standalone="no"?>
<!DOCTYPE svg PUBLIC "-//W3C//DTD SVG 1.1//EN" "http://www.w3.org/Graphics/SVG/1.1/DTD/svg11.dtd">
<svg width="100%" height="100%" viewBox="0 0 500 500" version="1.1" xmlns="http://www.w3.org/2000/svg" xmlns:xlink="http://www.w3.org/1999/xlink" xml:space="preserve" xmlns:serif="http://www.serif.com/" style="fill-rule:evenodd;clip-rule:evenodd;stroke-linejoin:round;stroke-miterlimit:2;">
    <g transform="matrix(1.001,0,0,1.001,2.5025,0.500502)">
        <rect x="-2.5" y="-0.5" width="499.5" height="499.5"/>
    </g>
    <g transform="matrix(0.904666,0,0,0.941407,27.1314,9.96136)">
        <g transform="matrix(1.68238,0,0,1.68238,-374.484,-180.486)">
            <path d="M505.533,199.233L471.533,233.233L319.933,233.233L353.833,199.333" style="fill:rgb(255,241,241);"/>
        </g>
        <g transform="matrix(1.68238,0,0,1.68238,-449.14,-104.325)">
            <path d="M485.533,199.233L451.533,233.233L319.933,233.233L353.833,199.333" style="fill:rgb(255,241,241);"/>
        </g>
        <g transform="matrix(1.68238,0,0,1.68238,-523.769,-26.5098)">
            <path d="M465.533,199.233L431.533,233.233L319.933,233.233L353.833,199.333" style="fill:rgb(255,241,241);"/>
        </g>
    </g>
</svg>
