<?xml version="1.0" encoding="UTF-8" standalone="no"?>
<!DOCTYPE svg PUBLIC "-//W3C//DTD SVG 1.1//EN" "http://www.w3.org/Graphics/SVG/1.1/DTD/svg11.dtd">
<svg width="100%" height="100%" viewBox="0 0 720 98" version="1.1" xmlns="http://www.w3.org/2000/svg" xmlns:xlink="http://www.w3.org/1999/xlink" xml:space="preserve" xmlns:serif="http://www.serif.com/" style="fill-rule:evenodd;clip-rule:evenodd;stroke-linejoin:round;stroke-miterlimit:2;">
    <g transform="matrix(1,0,0,1,-286.183,-226.201)">
        <g transform="matrix(1,0,0,1,99.1667,-10.1667)">
            <path d="M422.848,332.5L422.848,244.468L455.788,244.468C462.527,244.468 468.198,245.732 472.799,248.262C477.4,250.791 480.881,254.249 483.24,258.634C485.599,263.018 486.779,268.014 486.779,273.621C486.779,279.242 485.589,284.24 483.208,288.615C480.828,292.99 477.318,296.434 472.68,298.948C468.042,301.461 462.324,302.718 455.527,302.718L433.709,302.718L433.709,289.725L453.444,289.725C457.439,289.725 460.706,289.033 463.244,287.651C465.782,286.268 467.652,284.362 468.854,281.933C470.057,279.503 470.658,276.733 470.658,273.621C470.658,270.481 470.057,267.713 468.854,265.315C467.652,262.918 465.776,261.046 463.225,259.697C460.674,258.348 457.389,257.674 453.368,257.674L438.625,257.674L438.625,332.5L422.848,332.5Z" style="fill-rule:nonzero;"/>
            <path d="M520.714,333.833C514.302,333.833 508.731,332.412 504.001,329.569C499.271,326.726 495.614,322.747 493.029,317.634C490.444,312.521 489.152,306.577 489.152,299.802C489.152,292.951 490.444,286.963 493.029,281.837C495.614,276.711 499.271,272.727 504.001,269.884C508.731,267.041 514.302,265.619 520.714,265.619C527.151,265.619 532.734,267.041 537.462,269.884C542.19,272.727 545.846,276.711 548.431,281.837C551.016,286.963 552.308,292.951 552.308,299.802C552.308,306.577 551.016,312.521 548.431,317.634C545.846,322.747 542.19,326.726 537.462,329.569C532.734,332.412 527.151,333.833 520.714,333.833ZM520.714,321.365C524.3,321.365 527.279,320.4 529.651,318.47C532.023,316.54 533.792,313.941 534.957,310.672C536.123,307.403 536.707,303.766 536.707,299.759C536.707,295.713 536.123,292.054 534.957,288.782C533.792,285.509 532.023,282.909 529.651,280.98C527.279,279.052 524.3,278.087 520.714,278.087C517.139,278.087 514.174,279.052 511.82,280.98C509.467,282.909 507.707,285.503 506.541,288.763C505.375,292.023 504.792,295.688 504.792,299.759C504.792,303.766 505.375,307.403 506.541,310.672C507.707,313.941 509.467,316.54 511.82,318.47C514.174,320.4 517.139,321.365 520.714,321.365Z" style="fill-rule:nonzero;"/>
            <path d="M583.442,333.833C578.388,333.833 573.907,333.106 569.999,331.652C566.091,330.197 562.892,328.075 560.402,325.284C557.912,322.493 556.28,319.107 555.506,315.128L569.884,312.429C570.772,315.684 572.374,318.105 574.689,319.693C577.003,321.28 580.024,322.074 583.749,322.074C587.536,322.074 590.539,321.316 592.759,319.8C594.978,318.284 596.088,316.416 596.088,314.194C596.088,312.278 595.358,310.7 593.898,309.461C592.437,308.221 590.193,307.276 587.165,306.627L575.92,304.197C569.678,302.85 565.021,300.64 561.951,297.567C558.881,294.494 557.345,290.534 557.345,285.688C557.345,281.609 558.469,278.069 560.716,275.068C562.963,272.066 566.085,269.741 570.079,268.092C574.074,266.444 578.706,265.619 583.974,265.619C588.972,265.619 593.272,266.327 596.875,267.742C600.478,269.158 603.395,271.139 605.625,273.685C607.855,276.231 609.406,279.223 610.277,282.661L596.585,285.333C595.821,283.041 594.452,281.097 592.48,279.5C590.507,277.903 587.742,277.104 584.182,277.104C580.924,277.104 578.201,277.815 576.014,279.238C573.828,280.659 572.734,282.501 572.734,284.762C572.734,286.679 573.454,288.267 574.893,289.524C576.332,290.781 578.734,291.777 582.098,292.513L593.337,294.877C599.594,296.21 604.241,298.353 607.279,301.306C610.317,304.258 611.837,308.063 611.837,312.72C611.837,316.892 610.63,320.562 608.217,323.732C605.804,326.901 602.465,329.377 598.198,331.16C593.932,332.942 589.013,333.833 583.442,333.833Z" style="fill-rule:nonzero;"/>
            <path d="M650.635,266.446L650.635,278.48L613.125,278.48L613.125,266.446L650.635,266.446ZM622.498,250.73L637.854,250.73L637.854,313.898C637.854,316.286 638.366,318.038 639.39,319.157C640.414,320.274 642.105,320.833 644.462,320.833C645.146,320.833 646.066,320.751 647.223,320.587C648.381,320.422 649.315,320.26 650.025,320.103L652.445,331.954C650.761,332.476 649.039,332.845 647.278,333.063C645.519,333.282 643.815,333.391 642.168,333.391C635.847,333.391 630.988,331.817 627.592,328.669C624.196,325.521 622.498,321.036 622.498,315.215L622.498,250.73Z" style="fill-rule:nonzero;"/>
            <path d="M663.745,332.5L663.745,244.468L720.104,244.468L720.104,257.754L679.522,257.754L679.522,284.185L716.171,284.185L716.171,297.301L679.522,297.301L679.522,332.5L663.745,332.5Z" style="fill-rule:nonzero;"/>
            <rect x="728.125" y="244.468" width="15.356" height="88.032" style="fill-rule:nonzero;"/>
            <path d="M781.202,333.833C774.79,333.833 769.219,332.412 764.489,329.569C759.759,326.726 756.102,322.747 753.517,317.634C750.932,312.521 749.64,306.577 749.64,299.802C749.64,292.951 750.932,286.963 753.517,281.837C756.102,276.711 759.759,272.727 764.489,269.884C769.219,267.041 774.79,265.619 781.202,265.619C787.639,265.619 793.222,267.041 797.95,269.884C802.678,272.727 806.334,276.711 808.919,281.837C811.504,286.963 812.796,292.951 812.796,299.802C812.796,306.577 811.504,312.521 808.919,317.634C806.334,322.747 802.678,326.726 797.95,329.569C793.222,332.412 787.639,333.833 781.202,333.833ZM781.202,321.365C784.788,321.365 787.767,320.4 790.139,318.47C792.511,316.54 794.28,313.941 795.445,310.672C796.611,307.403 797.195,303.766 797.195,299.759C797.195,295.713 796.611,292.054 795.445,288.782C794.28,285.509 792.511,282.909 790.139,280.98C787.767,279.052 784.788,278.087 781.202,278.087C777.627,278.087 774.662,279.052 772.308,280.98C769.955,282.909 768.195,285.503 767.029,288.763C765.863,292.023 765.28,295.688 765.28,299.759C765.28,303.766 765.863,307.403 767.029,310.672C768.195,313.941 769.955,316.54 772.308,318.47C774.662,320.4 777.627,321.365 781.202,321.365Z" style="fill-rule:nonzero;"/>
            <path d="M830.035,332.5L810.367,266.446L826.522,266.446L833.026,292.344C834.044,296.566 835.144,301.222 836.326,306.311C837.509,311.399 838.626,317.066 839.676,323.312L837.717,323.312C838.8,317.243 839.952,311.654 841.173,306.545C842.394,301.437 843.547,296.703 844.632,292.344L851.294,266.446L865.956,266.446L872.458,292.344C873.504,296.642 874.635,301.335 875.85,306.425C877.066,311.513 878.214,317.142 879.296,323.312L877.342,323.312C878.404,317.193 879.503,311.588 880.637,306.499C881.771,301.41 882.86,296.692 883.903,292.344L890.407,266.446L906.732,266.446L886.98,332.5L871.449,332.5L863.711,305.539C862.944,302.847 862.186,299.943 861.436,296.827C860.687,293.711 859.958,290.531 859.247,287.287C858.538,284.042 857.812,280.919 857.07,277.917L859.944,277.917C859.241,280.894 858.525,284.011 857.795,287.268C857.066,290.525 856.33,293.724 855.588,296.865C854.846,300.006 854.085,302.897 853.303,305.539L845.565,332.5L830.035,332.5Z" style="fill-rule:nonzero;"/>
        </g>
        <g transform="matrix(0.789894,0,0,0.789894,103.56,68.8283)">
            <path d="M505.533,199.233L471.533,233.233L319.933,233.233L353.833,199.333"/>
        </g>
        <g transform="matrix(0.789894,0,0,0.789894,68.5089,103.09)">
            <path d="M485.533,199.233L451.533,233.233L319.933,233.233L353.833,199.333"/>
        </g>
        <g transform="matrix(0.789894,0,0,0.789894,33.47,138.129)">
            <path d="M465.533,199.233L431.533,233.233L319.933,233.233L353.833,199.333"/>
        </g>
    </g>
</svg>
